<svg width="89" height="121" viewBox="0 0 89 121" fill="none" xmlns="http://www.w3.org/2000/svg">
<path d="M5.23488 70.2657H22.8101V117.214C22.8101 119.301 25.1484 120.995 28.045 120.995L56.0133 121C58.9099 121 61.2481 119.301 61.2481 117.219V70.2707H77.909C80.5474 70.2707 82.774 68.849 83.102 66.9584L86.578 46.7917C86.9689 44.5431 84.5329 42.5416 81.385 42.5416H61.2481C62.0369 30.0836 58.2119 26.3982 69.4285 26.3982C77.0226 25.7428 89 28.5207 89 22.6169V4.58287C89 2.69225 87.0666 1.09404 84.4771 0.836917C82.2854 0.620125 73.6234 0 62.8814 0C13.9527 0 24.0246 39.1838 22.8171 42.5365H5.23488C2.34523 42.5365 0 44.2305 0 46.3178V66.4845C0 68.5717 2.34523 70.2657 5.23488 70.2657ZM10.4698 50.1041H28.045C30.9347 50.1041 33.2799 48.4101 33.2799 46.3228V30.4365C33.2799 15.9014 44.0638 7.56754 62.8744 7.56754C69.0027 7.56754 74.6425 7.78433 78.5233 8.00617V18.8407C75.7174 19.8742 50.7714 14.3839 50.7714 32.4381V46.3279C50.7714 48.4151 53.1166 50.1091 56.0063 50.1091H75.4521L73.2744 62.7133H56.0063C53.1166 62.7133 50.7714 64.4073 50.7714 66.4945V113.438H33.2869V66.4895C33.2869 64.4022 30.9417 62.7082 28.052 62.7082H10.4698V50.1041Z" fill="#0F8FF2"/>
</svg>
