<svg id="Capa_1" enable-background="new 0 0 496.2 496.2" height="512" viewBox="0 0 496.2 496.2" width="512" xmlns="http://www.w3.org/2000/svg"><g><path d="m192.121 485.378v-51.458c0-11.871-9.599-21.508-21.47-21.554l-74.58-.292c-12.782-.05-23.681-9.271-25.849-21.868l-12.691-73.766h-27.973c-3.397 0-6.15-2.753-6.15-6.15 0-23.513 6.578-46.556 18.99-66.526l9.101-14.643c1.249-2.009 1.824-4.365 1.642-6.723l-3.416-44.206c-7.427-96.11 68.557-178.192 164.954-178.192 117.757 0 202.185 113.562 168.262 226.328l-34.465 114.569v143.668c0 5.95-4.804 10.783-10.754 10.819l-134.717.813c-6.001.036-10.884-4.819-10.884-10.819z" fill="#ffcebf"/><path d="m240.446 488.184v-84.989c0-11.871-9.599-21.508-21.47-21.554l-74.58-.292c-12.782-.05-23.681-9.271-25.849-21.868l-7.948-46.199c-2.74-15.928-16.554-27.568-32.716-27.568-3.398 0-6.151-2.781-6.15-6.179.005-23.503 6.583-46.535 18.99-66.497l9.101-14.643c1.249-2.009 1.824-4.365 1.642-6.723l-3.416-44.206c-4.105-53.12 17.284-101.954 53.503-135.014-64.086 26.47-107.528 91.975-101.828 165.74l3.416 44.206c.182 2.359-.393 4.714-1.642 6.723l-9.101 14.643c-12.412 19.969-18.99 43.013-18.99 66.526 0 3.397 2.753 6.15 6.15 6.15h27.973l12.691 73.767c2.167 12.597 13.067 21.818 25.849 21.868l74.58.292c11.871.046 21.47 9.683 21.47 21.554v51.989c0 5.708 4.645 10.325 10.353 10.29l41.526-.25c-2.173-1.887-3.554-4.662-3.554-7.766z" fill="#ffb09e"/><path d="m120.362 365.42c-6.701-6.701-15.611-10.392-25.089-10.392h-31.103l2.581 15h28.522c5.471 0 10.614 2.13 14.481 5.998l9.376 9.377c1.465 1.464 3.384 2.197 5.304 2.197 1.919 0 3.839-.732 5.303-2.196 2.93-2.929 2.93-7.678.001-10.607z" fill="#ffa78f"/><path d="m433.693 30.559h-218.278c-21.594 0-39.099 17.505-39.099 39.099v182.016c0 21.594 17.505 39.099 39.099 39.099h9.479l16.981 28.373c3.437 5.743 11.758 5.743 15.195 0l16.981-28.373h159.641c21.594 0 39.099-17.505 39.099-39.099v-182.016c.001-21.594-17.504-39.099-39.098-39.099z" fill="#fd8087"/><path d="m244.482 194.095h61.845l5.619 11.83c2.742 5.772 7.504 10.34 13.386 12.839l4.278 1.818 26.095 15.193 6.93 16.259c1.786 4.191 5.902 6.911 10.458 6.911h.034c6.695 0 12.728-4.042 15.274-10.235.983-2.392 1.489-4.952 1.489-7.538v-17.938c0-5.502-1.183-10.94-3.469-15.944l-3.94-8.626c-.976-2.137.586-4.569 2.936-4.569h33.197c8.89 0 16.097-7.207 16.097-16.097 0-6.306-3.629-11.762-8.91-14.403 3.787-2.713 6.257-7.146 6.257-12.16 0-6.361-3.974-11.791-9.574-13.951 2.786-2.542 4.535-6.201 4.535-10.27 0-6.647-4.667-12.201-10.902-13.571-.434-.095-.74-.485-.74-.93v-.027c0-.356.201-.676.512-.847 4.471-2.465 7.441-7.317 7.181-12.842-.351-7.476-6.791-13.228-14.275-13.228h-20.588-62.377c-3.838 0-7.606 1.029-10.911 2.98l-8.592 5.072h-61.845c-5.241 0-9.489 4.248-9.489 9.489v81.295c0 5.241 4.248 9.49 9.489 9.49z" fill="#f9f7f8"/><g><path d="m192.185 280.82-1.299 1.294c4.042 3.261 8.746 5.729 13.879 7.179l232.325-253.601 4.131-4.401c-2.437-.475-4.952-.731-7.528-.731h-12.244z" fill="#fe646f"/></g></g></svg>