<svg id="Capa_1" enable-background="new 0 0 496.2 496.2" height="512" viewBox="0 0 496.2 496.2" width="512" xmlns="http://www.w3.org/2000/svg"><g><path d="m192.121 480.18v-46.26c0-11.871-9.599-21.508-21.47-21.554l-74.58-.292c-12.782-.05-23.681-9.271-25.849-21.868l-12.691-73.766h-27.973c-3.397 0-6.15-2.753-6.15-6.15 0-23.513 6.578-46.556 18.99-66.526l9.101-14.643c1.249-2.009 1.824-4.365 1.642-6.723l-3.416-44.206c-7.427-96.11 68.557-178.192 164.954-178.192 117.757 0 202.185 113.562 168.262 226.328l-34.465 114.569v138.532c0 8.791-7.098 15.932-15.889 15.985l-124.384.751c-8.866.054-16.082-7.119-16.082-15.985z" fill="#ffcebf"/><path d="m240.446 488.184v-84.989c0-11.871-9.599-21.508-21.47-21.554l-74.58-.292c-12.782-.05-23.681-9.271-25.849-21.868l-7.948-46.199c-2.74-15.928-16.554-27.568-32.716-27.568-3.398 0-6.151-2.781-6.15-6.179.005-23.503 6.583-46.535 18.99-66.497l9.101-14.643c1.249-2.009 1.824-4.365 1.642-6.723l-3.416-44.206c-4.105-53.12 17.284-101.954 53.503-135.014-64.086 26.47-107.528 91.975-101.828 165.74l3.416 44.206c.182 2.359-.393 4.714-1.642 6.723l-9.101 14.643c-12.412 19.969-18.99 43.013-18.99 66.526 0 3.397 2.753 6.15 6.15 6.15h27.973l12.691 73.767c2.167 12.597 13.067 21.818 25.849 21.868l74.58.292c11.871.046 21.47 9.683 21.47 21.554v51.989c0 5.708 4.645 10.325 10.353 10.29l41.526-.25c-2.173-1.887-3.554-4.662-3.554-7.766z" fill="#ffb09e"/><path d="m121.204 339.653-9.377 9.376c-3.868 3.868-9.01 5.999-14.481 5.999h-33.176l2.581 15h30.595c9.478 0 18.387-3.691 25.088-10.392l9.376-9.376c2.929-2.929 2.929-7.678 0-10.606-2.928-2.93-7.678-2.93-10.606-.001z" fill="#ffb09e"/><path d="m119.257 362.447c-.284-.968-.535-1.951-.71-2.966l-2.521-14.651-4.2 4.199c-3.868 3.868-9.01 5.999-14.481 5.999h-33.175l2.121 12.329.459 2.671h30.595c8.051 0 15.687-2.672 21.912-7.581z" fill="#ffa78f"/><path d="m433.693 30.559h-218.278c-21.594 0-39.099 17.505-39.099 39.099v182.016c0 21.594 17.505 39.099 39.099 39.099h9.479l16.981 28.373c3.437 5.743 11.758 5.743 15.195 0l16.981-28.373h159.641c21.594 0 39.099-17.505 39.099-39.099v-182.016c.001-21.594-17.504-39.099-39.098-39.099z" fill="#99e6fc"/><path d="m242.843 225.733h60.352l8.592 5.072c3.305 1.951 7.073 2.98 10.911 2.98h62.377 20.616c7.135 0 13.394-5.227 14.176-12.319.65-5.897-2.395-11.151-7.11-13.75-.312-.172-.512-.492-.512-.847v-.027c0-.445.306-.834.74-.93 6.235-1.37 10.902-6.924 10.902-13.571 0-4.068-1.748-7.728-4.535-10.27 5.599-2.16 9.574-7.59 9.574-13.951 0-5.014-2.47-9.448-6.257-12.16 5.281-2.641 8.91-8.097 8.91-14.403 0-8.89-7.207-16.097-16.097-16.097h-33.197c-2.35 0-3.912-2.431-2.936-4.569l3.94-8.626c2.286-5.005 3.469-10.442 3.469-15.944v-17.938c0-2.586-.506-5.147-1.489-7.538-2.546-6.192-8.579-10.235-15.274-10.235h-.034c-4.556 0-8.671 2.72-10.458 6.911l-6.93 16.259-26.095 15.193-4.278 1.818c-5.882 2.499-10.644 7.067-13.386 12.839l-5.619 11.83h-60.352c-6.065 0-10.981 4.917-10.981 10.981v78.31c0 6.066 4.916 10.982 10.981 10.982z" fill="#f9f7f8"/></g></svg>