<svg xmlns="http://www.w3.org/2000/svg" width="430.503" height="332.089" viewBox="0 0 430.503 332.089"><g transform="translate(0.502 -9.84)"><path d="M335.294,276.966l0-.721c1.434,0,2.89-.02,4.327-.073l.027.721C338.2,276.946,336.737,276.971,335.294,276.966Zm-4.354-.1c-1.441-.061-2.9-.152-4.347-.271l.059-.719c1.433.118,2.886.208,4.318.269ZM344,276.646l-.055-.719c1.432-.11,2.881-.251,4.306-.418l.084.717C346.9,276.393,345.439,276.535,344,276.646Zm-21.737-.491c-1.438-.177-2.888-.385-4.312-.618l.117-.712c1.414.232,2.855.438,4.283.614Zm30.386-.524-.113-.712c1.415-.224,2.848-.481,4.258-.763l.142.707c-1.42.284-2.863.543-4.287.768Zm-38.981-.886c-1.418-.292-2.847-.617-4.247-.964l.174-.7c1.391.346,2.81.668,4.219.958Zm47.521-.824-.17-.7c1.4-.339,2.8-.711,4.183-1.105l.2.694c-1.388.4-2.8.771-4.211,1.112Zm-55.974-1.276c-1.389-.406-2.787-.845-4.155-1.305l.23-.684c1.359.457,2.748.894,4.128,1.3Zm64.347-1.12-.226-.685c1.363-.45,2.735-.935,4.08-1.441l.254.675c-1.354.509-2.735,1-4.107,1.451Zm-72.613-1.662c-1.351-.517-2.712-1.069-4.045-1.643l.285-.662c1.324.569,2.676,1.118,4.018,1.631Zm80.754-1.4-.281-.664c1.32-.559,2.646-1.151,3.94-1.762l.308.653c-1.3.614-2.638,1.211-3.967,1.773Zm-88.774-2.048c-1.308-.626-2.619-1.287-3.9-1.964l.338-.637c1.269.672,2.571,1.328,3.87,1.95Zm96.634-1.658-.334-.639c1.272-.664,2.547-1.363,3.788-2.075l.359.625c-1.25.717-2.533,1.42-3.813,2.089Zm-104.344-2.425c-1.254-.731-2.507-1.495-3.723-2.271l.388-.608c1.208.771,2.452,1.53,3.7,2.256ZM393.1,260.426l-.384-.611c1.212-.762,2.426-1.56,3.611-2.374l.408.594c-1.192.819-2.416,1.623-3.635,2.39Zm-119.237-2.783c-1.19-.828-2.376-1.689-3.527-2.561l.436-.575c1.143.866,2.322,1.722,3.5,2.545Zm126.41-2.141-.432-.577c1.146-.856,2.294-1.75,3.411-2.657l.454.56c-1.125.913-2.28,1.813-3.434,2.675Zm-133.358-3.121c-1.117-.918-2.23-1.872-3.309-2.835l.48-.538c1.072.956,2.178,1.9,3.287,2.816Zm140.117-2.364-.477-.541c1.077-.949,2.151-1.932,3.189-2.923l.5.522c-1.045,1-2.125,1.987-3.21,2.942Zm-146.619-3.435c-1.037-1-2.07-2.042-3.07-3.089l.521-.5c.994,1.04,2.02,2.073,3.05,3.069Zm152.92-2.576-.518-.5c1-1.03,1.989-2.1,2.947-3.169l.538.481c-.964,1.079-1.962,2.153-2.966,3.19ZM254.4,240.284c-.958-1.087-1.9-2.205-2.813-3.324l.56-.454c.9,1.111,1.842,2.222,2.794,3.3Zm164.737-2.777-.557-.458c.915-1.111,1.818-2.254,2.684-3.4l.575.436c-.872,1.15-1.782,2.3-2.7,3.419Zm-170.226-3.979c-.865-1.157-1.719-2.346-2.536-3.536l.594-.409c.812,1.182,1.66,2.363,2.52,3.513ZM424.4,230.562l-.592-.412c.823-1.182,1.632-2.394,2.4-3.6l.608.388C426.047,228.152,425.233,229.372,424.4,230.562Zm-180.42-4.2c-.769-1.221-1.523-2.474-2.243-3.726l.625-.359c.715,1.244,1.465,2.489,2.228,3.7ZM429.1,223.213l-.623-.363c.726-1.245,1.435-2.519,2.107-3.787l.637.338C430.543,220.677,429.829,221.959,429.1,223.213ZM239.65,218.818c-.668-1.278-1.319-2.588-1.935-3.893l.652-.308c.612,1.3,1.259,2.6,1.922,3.866Zm193.535-3.313-.65-.312c.621-1.3,1.226-2.624,1.795-3.947l.662.285C434.419,212.863,433.811,214.2,433.185,215.506Zm-197.245-4.545c-.564-1.33-1.106-2.687-1.613-4.033l.674-.254c.5,1.336,1.043,2.685,1.6,4.006Zm200.7-3.474-.674-.258c.516-1.347,1.011-2.721,1.47-4.082l.683.23c-.462,1.37-.96,2.753-1.479,4.109Zm-203.764-4.666c-.454-1.372-.887-2.773-1.285-4.162l.693-.2c.4,1.379.825,2.77,1.276,4.134Zm206.551-3.6-.692-.2c.4-1.375.783-2.78,1.131-4.176l.7.174C440.211,196.424,439.829,197.839,439.424,199.223Zm-208.951-4.774c-.342-1.406-.659-2.836-.944-4.252l.707-.142c.282,1.407.6,2.828.937,4.224Zm211.055-3.677-.706-.146c.29-1.4.555-2.835.788-4.254l.712.117c-.235,1.428-.5,2.869-.794,4.283Zm-212.77-4.862c-.226-1.424-.427-2.876-.6-4.314l.716-.084c.169,1.429.368,2.87.593,4.285Zm214.184-3.732-.716-.088c.176-1.427.326-2.875.444-4.3l.719.059c-.119,1.438-.269,2.9-.447,4.332Zm-215.2-4.916c-.112-1.441-.2-2.9-.249-4.349l.721-.027c.053,1.435.137,2.888.248,4.32ZM443.662,173.5l-.72-.031c.061-1.437.094-2.892.1-4.326V168.9l.721,0v.237C443.758,170.588,443.724,172.053,443.662,173.5Zm-215.529-4.94-.721,0v-.121c0-1.407.037-2.831.1-4.232l.721.03c-.058,1.392-.09,2.807-.094,4.206Zm214.828-3.981c-.055-1.432-.139-2.886-.253-4.319l.719-.057c.113,1.444.2,2.907.254,4.348Zm-214.466-4.663-.719-.059c.118-1.444.267-2.9.442-4.333l.716.088C228.76,157.034,228.612,158.482,228.495,159.916Zm213.789-3.962c-.169-1.423-.37-2.864-.6-4.285l.712-.114c.229,1.43.432,2.881.6,4.313Zm-212.739-4.625-.712-.116c.233-1.427.5-2.868.79-4.283l.706.145C230.041,148.479,229.777,149.911,229.545,151.329Zm211.37-3.917c-.285-1.41-.6-2.831-.942-4.223l.7-.171c.343,1.4.662,2.831.948,4.251Zm-209.631-4.558-.7-.173c.347-1.4.729-2.818,1.133-4.206l.692.2C232.008,140.056,231.63,141.461,231.284,142.854Zm207.577-3.846c-.4-1.379-.828-2.769-1.281-4.132l.685-.228c.456,1.373.89,2.772,1.289,4.16ZM233.7,134.548l-.683-.23c.461-1.372.957-2.755,1.475-4.111l.674.257c-.514,1.347-1.007,2.721-1.465,4.084ZM436.132,130.8c-.508-1.343-1.049-2.69-1.607-4l.664-.282c.562,1.323,1.107,2.679,1.618,4.031ZM236.8,126.445l-.663-.285c.571-1.331,1.178-2.668,1.8-3.975l.651.311c-.621,1.3-1.223,2.627-1.79,3.949Zm195.958-3.588c-.613-1.295-1.261-2.595-1.926-3.864l.638-.335c.67,1.278,1.322,2.587,1.939,3.89Zm-192.219-4.233-.638-.337c.676-1.279,1.389-2.562,2.117-3.815l.623.363C241.917,116.079,241.21,117.355,240.538,118.625Zm188.212-3.416c-.717-1.244-1.468-2.488-2.232-3.7l.61-.385c.77,1.219,1.525,2.472,2.247,3.724Zm-183.855-4.072-.608-.388c.778-1.221,1.591-2.442,2.416-3.63l.592.412C246.474,108.71,245.667,109.924,244.894,111.136ZM424.137,107.9c-.814-1.182-1.663-2.363-2.523-3.51l.577-.432c.866,1.155,1.721,2.344,2.54,3.533Zm-174.3-3.877-.575-.435c.873-1.154,1.781-2.305,2.7-3.422l.557.458c-.911,1.109-1.813,2.253-2.68,3.4Zm169.114-3.04c-.906-1.113-1.847-2.223-2.8-3.3l.54-.477c.957,1.083,1.9,2.2,2.817,3.32ZM255.332,97.337l-.538-.479c.961-1.079,1.957-2.153,2.963-3.194l.519.5c-1,1.034-1.988,2.1-2.943,3.173ZM413.226,94.5c-.995-1.039-2.022-2.07-3.054-3.065l.5-.519c1.039,1,2.073,2.04,3.074,3.086Zm-151.884-3.39-.5-.521c1.044-1,2.123-1.989,3.207-2.946l.477.541c-1.077.95-2.149,1.935-3.186,2.926ZM407,88.5c-1.075-.956-2.181-1.9-3.29-2.812l.457-.557c1.116.916,2.231,1.868,3.312,2.831ZM267.828,85.39l-.456-.559c1.122-.913,2.276-1.814,3.431-2.678l.432.577c-1.147.859-2.294,1.754-3.408,2.66ZM400.306,83c-1.148-.867-2.328-1.722-3.506-2.541l.411-.592c1.187.824,2.375,1.685,3.53,2.557Zm-125.558-2.8-.409-.594c1.191-.82,2.414-1.625,3.633-2.394l.385.61C277.145,78.593,275.931,79.394,274.747,80.208Zm118.445-2.142c-1.213-.772-2.458-1.53-3.7-2.251l.363-.624c1.251.727,2.5,1.489,3.726,2.267ZM282.056,75.6l-.36-.625c1.249-.719,2.532-1.424,3.811-2.093l.335.639c-1.271.665-2.545,1.365-3.786,2.079ZM385.7,73.714c-1.271-.671-2.574-1.326-3.873-1.946l.311-.651c1.307.624,2.619,1.283,3.9,1.959Zm-96-2.117-.308-.652c1.3-.616,2.637-1.214,3.965-1.778l.282.664c-1.32.56-2.645,1.155-3.938,1.766Zm88.172-1.618c-1.324-.567-2.676-1.114-4.02-1.627l.257-.674c1.353.516,2.715,1.067,4.047,1.638ZM297.65,68.226l-.255-.674c1.351-.51,2.733-1,4.105-1.455l.227.684C300.364,67.233,298.992,67.719,297.65,68.226Zm72.124-1.336c-1.361-.456-2.751-.891-4.129-1.292l.2-.692c1.388.4,2.786.841,4.157,1.3ZM305.862,65.5l-.2-.693c1.388-.4,2.8-.775,4.21-1.118l.171.7C308.647,64.731,307.24,65.105,305.862,65.5Zm55.606-1.027c-1.391-.344-2.811-.665-4.22-.953l.144-.707c1.418.29,2.848.613,4.249.96Zm-47.2-1.022-.142-.707c1.415-.285,2.857-.545,4.287-.773l.114.712C317.1,62.91,315.671,63.169,314.266,63.452Zm38.726-.712c-1.417-.231-2.858-.436-4.283-.609l.087-.716c1.434.175,2.885.381,4.312.614Zm-30.183-.651-.085-.716c1.435-.17,2.893-.313,4.335-.425l.056.719C325.683,61.777,324.234,61.919,322.809,62.088Zm21.6-.394c-1.429-.116-2.882-.2-4.318-.264l.03-.721c1.446.06,2.908.149,4.347.266Zm-12.97-.279-.027-.721c1.442-.055,2.908-.081,4.355-.079v.721C334.322,61.335,332.867,61.361,331.434,61.415Z" transform="translate(-138.647 -30.956)" fill="#718096"/><path d="M577.618,182.218A5,5,0,0,1,579.2,188.9L512.827,303.863,492.6,338.889a5,5,0,0,1-6.828,1.83h0l-43.233-24.96L410.27,297.125l-114.631-66.18a5,5,0,0,1-2.486-4.7l15.565-211.77a5,5,0,0,1,7.73-3.812Z" transform="translate(-178.72 0)" fill="#f5b022"/><path d="M206.547,379.236A38.875,38.875,0,0,1,258.1,351.9c7.391,2.789,13.73,7.747,19.63,12.883,11.4,9.922,22.436,20.25,36.2,26.871,12.3,5.914,26.144,8.426,39.515,4.9a41.116,41.116,0,0,0,16.461-8.483,38.756,38.756,0,0,0,10.6-15.761c4.777-12.578,4.682-26.337,8.329-39.208a42.693,42.693,0,0,1,9.628-17.955,47.073,47.073,0,0,1,17.065-11.173c15.08-5.96,31.4-5.477,47.333-5.266,15.056.2,30.484-.061,44.586-5.99A47.77,47.77,0,0,0,524.233,281.3c4.94-5.369,8.23-11.971,10.586-18.823,1.216-3.538,2.185-7.152,3.056-10.788.324-1.353-1.762-1.931-2.086-.575-1.8,7.527-4.046,15.063-8.012,21.765a41.723,41.723,0,0,1-15.28,14.952c-13.287,7.634-28.973,8.794-43.963,8.761-16.087-.036-32.543-1.233-48.17,3.426-12.717,3.792-24.42,11.388-30.308,23.632-5.862,12.188-6.066,26.018-8.984,39.01-1.449,6.452-3.616,12.806-7.5,18.223A35.161,35.161,0,0,1,358,392.779c-13.132,5.262-27.775,3.719-40.522-1.863-14.291-6.257-25.737-16.681-37.3-26.858-5.573-4.9-11.433-9.676-18.2-12.844a41.085,41.085,0,0,0-57.519,27.447c-.331,1.352,1.755,1.929,2.086.575Z" transform="translate(-124.633 -146.628)" fill="#1a202c"/><path d="M542.935,649.017H506.7a126.719,126.719,0,0,1,0-43.2h36.23A77.725,77.725,0,0,0,542.935,649.017Z" transform="translate(-307.795 -363.354)" fill="#edf2f7"/><path d="M255.208,538.13h36.23a126.72,126.72,0,0,0,0-43.2h-36.23A77.726,77.726,0,0,1,255.208,538.13Z" transform="translate(-155.594 -295.749)" fill="#edf2f7"/><path d="M272.982,535.8a8.673,8.673,0,0,1,7.506.564c1.9,1.064,3.63,2.363,5.84,2.7a9.029,9.029,0,0,0,5.3-.81c2.111-1.032,3.413-3.018,5.22-4.443,1.014-.8-.415-2.211-1.42-1.42-1.765,1.392-3.023,3.415-5.173,4.27a7.37,7.37,0,0,1-6.629-.755,18.472,18.472,0,0,0-5.183-2.5,10.6,10.6,0,0,0-6,.456c-1.2.446-.681,2.387.534,1.935Z" transform="translate(-165.69 -318.448)" fill="#1a202c"/><path d="M272.982,560.66a8.673,8.673,0,0,1,7.506.564c1.9,1.064,3.63,2.363,5.84,2.7a9.029,9.029,0,0,0,5.3-.81c2.111-1.032,3.413-3.018,5.22-4.443,1.014-.8-.415-2.211-1.42-1.419-1.765,1.391-3.023,3.415-5.173,4.27a7.371,7.371,0,0,1-6.629-.754,18.449,18.449,0,0,0-5.183-2.5,10.6,10.6,0,0,0-6,.456c-1.2.446-.681,2.387.534,1.936Z" transform="translate(-165.69 -333.602)" fill="#1a202c"/><path d="M539.3,632.655a8.672,8.672,0,0,0-7.506.564c-1.9,1.064-3.631,2.363-5.84,2.7a9.03,9.03,0,0,1-5.3-.81c-2.11-1.032-3.413-3.018-5.22-4.443-1.014-.8.415-2.211,1.419-1.419,1.765,1.391,3.023,3.415,5.173,4.27a7.372,7.372,0,0,0,6.629-.754,18.455,18.455,0,0,1,5.183-2.5,10.6,10.6,0,0,1,6,.456c1.2.446.681,2.387-.534,1.936Z" transform="translate(-314.032 -377.495)" fill="#1a202c"/><path d="M539.3,656.653a8.672,8.672,0,0,0-7.506.564c-1.9,1.064-3.631,2.363-5.84,2.7a9.03,9.03,0,0,1-5.3-.81c-2.11-1.032-3.413-3.018-5.22-4.443-1.014-.8.415-2.211,1.419-1.42,1.765,1.392,3.023,3.415,5.173,4.27a7.371,7.371,0,0,0,6.629-.755,18.455,18.455,0,0,1,5.183-2.5,10.6,10.6,0,0,1,6,.456c1.2.446.681,2.387-.534,1.936Z" transform="translate(-314.032 -392.126)" fill="#1a202c"/><path d="M539.3,680.652a8.673,8.673,0,0,0-7.506.564c-1.9,1.064-3.631,2.363-5.84,2.7a9.025,9.025,0,0,1-5.3-.81c-2.11-1.032-3.413-3.018-5.22-4.443-1.014-.8.415-2.211,1.419-1.419,1.765,1.392,3.023,3.415,5.173,4.27a7.37,7.37,0,0,0,6.629-.754,18.444,18.444,0,0,1,5.183-2.5,10.6,10.6,0,0,1,6,.456c1.2.446.681,2.387-.534,1.936Z" transform="translate(-314.032 -406.758)" fill="#f2f2f2"/><path d="M666.682,186.5c-7.754-13.1-23.094-13.712-23.094-13.712s-14.948-1.912-24.537,18.042c-8.938,18.6-21.273,36.556-1.986,40.91l3.484-10.844,2.157,11.651a75.507,75.507,0,0,0,8.253.141c20.655-.667,40.326.2,39.693-7.217C669.81,215.618,674.143,199.107,666.682,186.5Z" transform="translate(-369.982 -99.315)" fill="#2f2e41"/><path d="M570.744,526.725l-26.149,18.159s-15.253,15.98-4.358,15.98,15.253-13.8,15.253-13.8L588.9,532.536Z" transform="translate(-326.976 -315.132)" fill="#ffb8b8"/><path d="M624.89,345.283s-22.881,70.821-15.617,74.453,23.244,5.811,23.244,5.811Z" transform="translate(-370.59 -204.511)" fill="#12ac95"/><path d="M695.781,618.993l-20.96,36.3a3.525,3.525,0,0,1-4.815,1.291h0a3.519,3.519,0,0,1-1.648-2.16c-8.2-31.434-17.882-68.141-17.882-68.141l-24.98,44.6-32.273-18.634c7.724-16.63,20.932-55.751,20.932-55.751L673,526.723s18.885,11.622,19.611,39.951.726,45.036.726,45.036S694.292,614.47,695.781,618.993Z" transform="translate(-361.674 -315.13)" fill="#1a202c"/><circle cx="18.886" cy="18.886" r="18.886" transform="translate(249.942 84.841)" fill="#ffb8b8"/><path d="M687.084,275.636s4.358,13.8,0,18.886,23.97-7.264,23.97-7.264-10.169-14.527-7.264-21.065Z" transform="translate(-418.62 -156.292)" fill="#ffb8b8"/><path d="M684.282,292.339a18.567,18.567,0,0,1-1.8,2.439c-.726.726-5.085,1.453-5.811,2.906s-11.437,3.523-11.437,3.523l-3.817,1.561s-18.159,4.358-18.159,7.99-1.453,14.528-1.453,14.528S636,331.823,639.63,347.8a105.122,105.122,0,0,1,2.256,30.762c-1.745,20.2-6.888,41.989-1.53,43.328,8.716,2.179,33.413,2.906,41.4-7.99s8.716-20.338,17.433-21.065-1.452-30.508-1.452-30.508l10.9-71.184S690.436,284.816,684.282,292.339Z" transform="translate(-388.962 -169.987)" fill="#6ac2ba"/><path d="M700.4,521.261h36.23a126.719,126.719,0,0,0,0-43.2H700.4A77.727,77.727,0,0,1,700.4,521.261Z" transform="translate(-427.017 -285.464)" fill="#edf2f7"/><path d="M717.809,510.092a8.673,8.673,0,0,1,7.506.564c1.9,1.064,3.63,2.363,5.84,2.7a9.029,9.029,0,0,0,5.3-.81c2.111-1.032,3.413-3.018,5.22-4.443,1.014-.8-.415-2.211-1.419-1.419-1.765,1.392-3.023,3.415-5.173,4.27a7.371,7.371,0,0,1-6.629-.754,18.457,18.457,0,0,0-5.183-2.5,10.6,10.6,0,0,0-6,.456c-1.2.446-.681,2.387.534,1.936Z" transform="translate(-436.89 -302.772)" fill="#1a202c"/><path d="M717.809,534.09a8.672,8.672,0,0,1,7.506.564c1.9,1.064,3.63,2.363,5.84,2.7a9.031,9.031,0,0,0,5.3-.81c2.111-1.032,3.413-3.018,5.22-4.443,1.014-.8-.415-2.211-1.419-1.42-1.765,1.392-3.023,3.415-5.173,4.27a7.37,7.37,0,0,1-6.629-.754,18.475,18.475,0,0,0-5.183-2.5,10.6,10.6,0,0,0-6,.456c-1.2.447-.681,2.387.534,1.936Z" transform="translate(-436.89 -317.403)" fill="#1a202c"/><path d="M799.64,411.347,773.49,429.506s-15.254,15.98-4.358,15.98,15.253-13.8,15.253-13.8L817.8,417.158Z" transform="translate(-466.528 -244.788)" fill="#ffb8b8"/><path d="M675.2,192.36l-15.156-7.938-9.508,1.475a17,17,0,0,0-13.972,13.044l-1.778,7.853,10.779-.415,3.011-7.026v6.911l4.974-.191,2.886-11.186,1.8,11.908,17.681-.361Z" transform="translate(-387.014 -106.438)" fill="#2f2e41"/><path d="M805.966,296.491l5.085-1.453s51.572,21.065,50.12,39.224.726,18.159-7.99,18.885-34.14-7.99-33.413-9.443,5.811-8.716,5.811-8.716l-19.612-15.254Z" transform="translate(-491.377 -173.878)" fill="#6ac2ba"/><circle cx="2.905" cy="2.905" r="2.905" transform="translate(284.808 100.822)" fill="#ffb8b8"/><path d="M808.623,366.748c18.957-1.023,38.176,1.669,56.826-2.919,1.351-.332.779-2.419-.575-2.086-18.447,4.538-37.5,1.83-56.251,2.842-1.384.075-1.393,2.239,0,2.164Z" transform="translate(-492.362 -214.524)" fill="#3f3d56"/><path d="M986.972,367.852l30.064-20.217a126.712,126.712,0,0,0-24.1-35.846l-30.065,20.217A77.726,77.726,0,0,1,986.972,367.852Z" transform="translate(-587.036 -184.09)" fill="#edf2f7"/><path d="M1002.476,366.1a8.672,8.672,0,0,1,6.543-3.72c2.173-.18,4.331-.066,6.354-1.017a9.027,9.027,0,0,0,3.947-3.631c1.176-2.034,1.148-4.409,1.853-6.6.4-1.229-1.578-1.6-1.969-.386-.688,2.139-.6,4.521-1.91,6.43a7.369,7.369,0,0,1-5.922,3.073,18.474,18.474,0,0,0-5.7.817,10.6,10.6,0,0,0-4.722,3.724c-.747,1.04.767,2.361,1.523,1.309Z" transform="translate(-610.133 -207.384)" fill="#1a202c"/><path d="M1016.346,386.721a8.672,8.672,0,0,1,6.543-3.72c2.173-.18,4.331-.065,6.353-1.017a9.025,9.025,0,0,0,3.947-3.63c1.176-2.034,1.148-4.409,1.853-6.6.4-1.229-1.578-1.6-1.969-.386-.688,2.139-.6,4.521-1.91,6.43a7.37,7.37,0,0,1-5.922,3.073,18.471,18.471,0,0,0-5.7.817,10.6,10.6,0,0,0-4.722,3.724c-.747,1.04.767,2.361,1.523,1.308Z" transform="translate(-618.589 -219.959)" fill="#1a202c"/><rect width="39.122" height="151.951" transform="translate(0 64.857) rotate(-89.813)" fill="#f7fafc" stroke="#e2e8f0" stroke-miterlimit="10" stroke-width="1"/><circle cx="10.645" cy="10.645" r="10.645" transform="translate(7.578 34.652)" fill="#0ba8df"/><rect width="39.122" height="151.951" transform="translate(0 169.074) rotate(-89.813)" fill="#f7fafc" stroke="#e2e8f0" stroke-miterlimit="10" stroke-width="1"/><circle cx="10.645" cy="10.645" r="10.645" transform="translate(7.578 138.869)" fill="#0ba8df"/><rect width="151.951" height="39.122" transform="matrix(1, -0.003, 0.003, 1, 36.565, 78.38)" fill="#f7fafc" stroke="#e2e8f0" stroke-miterlimit="10" stroke-width="1"/><circle cx="10.645" cy="10.645" r="10.645" transform="translate(159.775 86.799)" fill="#0ba8df"/><g transform="translate(40.526 36.395)"><rect width="3.131" height="44.041" transform="translate(0.049 3.131) rotate(-89.813)" fill="#a0aec0"/><rect width="3.131" height="97.057" transform="translate(0.025 10.645) rotate(-89.813)" fill="#a0aec0"/><rect width="3.131" height="97.057" transform="translate(0 18.159) rotate(-89.813)" fill="#a0aec0"/><rect width="3.131" height="44.041" transform="translate(0.049 107.348) rotate(-89.813)" fill="#a0aec0"/><rect width="3.131" height="97.057" transform="translate(0.025 114.862) rotate(-89.813)" fill="#a0aec0"/><rect width="3.131" height="97.057" transform="translate(0 122.376) rotate(-89.813)" fill="#a0aec0"/><rect width="44.041" height="3.131" transform="matrix(1, -0.003, 0.003, 1, 63.49, 52.291)" fill="#a0aec0"/><rect width="97.057" height="3.131" transform="matrix(1, -0.003, 0.003, 1, 10.499, 59.979)" fill="#a0aec0"/><rect width="97.057" height="3.131" transform="matrix(1, -0.003, 0.003, 1, 10.524, 67.493)" fill="#a0aec0"/></g></g></svg>