<svg width="10" height="0" viewBox="25 50 550 100" fill="none" xmlns="http://www.w3.org/2000/svg">
<path fill-rule="evenodd" clip-rule="evenodd" d="M546 0H0V70H546V0ZM102.973 26.1484L94.1758 3L85.3828 26.1484H56.918L79.9453 40.4531L71.1484 63.6016L94.1758 49.2969L117.203 63.6016L108.41 40.4531L131.438 26.1484H102.973ZM186.176 3L194.973 26.1484H223.438L200.41 40.4531L209.203 63.6016L186.176 49.2969L163.148 63.6016L171.945 40.4531L148.918 26.1484H177.383L186.176 3ZM286.973 26.1484L278.176 3L269.383 26.1484H240.918L263.945 40.4531L255.148 63.6016L278.176 49.2969L301.203 63.6016L292.41 40.4531L315.438 26.1484H286.973ZM370.176 3L378.973 26.1484H407.438L384.41 40.4531L393.203 63.6016L370.176 49.2969L347.148 63.6016L355.945 40.4531L332.918 26.1484H361.383L370.176 3ZM470.973 26.1484L462.176 3L453.383 26.1484H424.918L447.945 40.4531L439.148 63.6016L462.176 49.2969L485.203 63.6016L476.41 40.4531L499.438 26.1484H470.973Z" fill="#111111"/>
</svg>
