<svg width="155" height="123" viewBox="0 0 155 123" fill="none" xmlns="http://www.w3.org/2000/svg">
<path d="M154.972 16.5093C145.225 16.9442 145.438 16.9087 144.336 16.998L150.108 1.03901C150.108 1.03901 132.09 7.45578 127.523 8.60363C115.526 -1.83463 97.695 -2.29583 84.9469 5.28939C74.5075 11.5024 68.9042 22.1719 70.7731 34.6426C50.4559 31.9132 33.3374 22.5896 19.8221 6.87212L15.5475 1.9019L12.3534 7.58052C8.31644 14.756 6.97591 22.9604 8.5777 30.6818C9.23496 33.8495 10.3521 36.8708 11.8995 39.6998L8.23251 38.3242L7.79749 44.2558C7.35655 50.2811 9.42883 57.3147 13.3417 63.0689C14.4434 64.6894 15.862 66.469 17.66 68.2245L15.7651 67.943L18.0773 74.7397C21.1166 83.6696 27.4291 90.5785 35.6213 94.4191C27.4398 97.7803 20.8305 99.9249 9.9667 103.385L0.0273438 106.548L9.20777 111.407C12.7081 113.26 25.0767 119.448 37.2976 121.304C64.4629 125.428 95.0482 122.069 115.639 104.117C132.982 88.9957 138.672 67.4864 137.49 45.1026C137.312 41.714 138.27 38.4799 140.19 35.9976C144.036 31.0274 154.948 16.5425 154.972 16.5093ZM132.931 30.7333C129.743 34.8543 128.145 40.1175 128.432 45.5512C129.624 68.1295 123.279 85.6392 109.569 97.5915C93.5552 111.555 67.7244 117.035 38.7031 112.628C33.4474 111.83 28.0155 110.044 23.5198 108.26C32.6281 105.226 39.6618 102.522 51.0209 97.3168L66.878 90.0509L49.3707 88.966C40.9846 88.4464 34.0018 84.5119 29.7095 78.1237C31.9886 77.9956 34.1862 77.6385 36.3743 77.048L53.0719 72.5458L36.2348 68.5541C28.0533 66.6143 23.3898 61.8753 20.918 58.2406C19.2949 55.8522 18.2345 53.4054 17.5985 51.1497C19.2866 51.5881 21.2549 51.9005 24.4289 52.2049L40.0129 53.6972L27.6656 44.3725C18.7688 37.6547 15.2035 27.5621 17.8172 17.8597C45.5831 45.7401 78.1839 43.6446 81.4655 44.3816C80.7432 37.5895 80.7243 37.5735 80.5352 36.9269C76.3327 22.545 85.5427 15.2424 89.6967 12.7705C98.3735 7.60798 112.147 6.82978 121.686 15.3351C123.747 17.1708 126.533 17.8929 129.141 17.2657C131.481 16.7027 133.402 16.1064 135.283 15.4576L131.368 26.2815L136.366 26.2849C135.423 27.5095 134.291 28.9755 132.931 30.7333Z" fill="#1DA1F2"/>
</svg>
