<svg width="18.631" height="13.966" version="1.1" viewBox="0 0 4.9293 3.6952" xmlns="http://www.w3.org/2000/svg">
 <g transform="translate(-.0040204 -293.32)" fill-rule="evenodd">
  <g transform="matrix(.014057 0 0 .014057 47.362 155.38)" clip-rule="evenodd" fill="#81a9bd">
   <path d="m-1841.6 9988.3-51.811 4.8629v87.53h880.43v-186.49c-29.585 11.052-57.295 23.468-84.481 35.649-56.332 25.24-110.4 49.468-174.22 58.452-72.534 10.211-145.07 3.7444-217.6-2.7233-31.086-2.7714-62.173-5.5433-93.259-7.0022-103.62-4.8628-207.24 4.8626-259.05 9.7255z" stroke-width=".2665"/>
   <path d="m-3369.1 9882.9v193.17h350.68v-262.88l-123.93 18.125c-16.57 3.643-33.292 6.4168-51.388 9.4195-42.595 7.0671-92.826 15.401-166.74 39.317-2.8905 0.9352-5.7594 1.8859-8.6122 2.851z" stroke-width=".26883"/>
   <g transform="matrix(.50869 0 0 .50869 3639.1 4982.3)" stroke-width=".027025">
    <path transform="matrix(37.003 0 0 37.003 -13906 -31857)" d="m502.72 860.93-12.445 1.8223c-5.5807 1.2296-11.327 1.4766-21.902 4.9062-2.9657 0.96177-5.7098 2.0871-8.3789 3.2422v16.486h42.727z"/>
    <path transform="matrix(37.003 0 0 37.003 -13906 -31857)" d="m456.46 872.45c-5.5298 2.4435-10.913 4.756-17.193 5.6289-10.576 1.4699-21.151-0.48858-31.727-0.97852-10.576-0.48996-21.152 0.48855-26.439 0.97852l-5.2891 0.49023v8.8203h80.648z"/>
   </g>
  </g>
  <g fill="#181818" stroke-miterlimit="0" stroke-width="0">
   <rect x="116.06" y="165.17" width="1.4959" height="13.761" ry=".26727" opacity=".984" style="paint-order:markers stroke fill"/>
   <path d="m71.161 183.48c-0.14807 0-0.26768 0.11961-0.26768 0.26768v8.753c0 0.14806 0.11962 0.26716 0.26768 0.26716h9.9896a10.023 3.5747 0 0 1-0.50178-1.1022 10.023 3.5747 0 0 1 10.023-3.575 10.023 3.5747 0 0 1 3.9424 0.28887v-4.6318c0-0.14807-0.11962-0.26768-0.26768-0.26768z" opacity=".984" style="paint-order:markers stroke fill"/>
   <path d="m115.79 189.51v4.1212c0 0.14806-0.11962 0.26716-0.26768 0.26716h-13.196a10.023 3.5747 0 0 0 9.5209 2.4722 10.023 3.5747 0 0 0 10.023-3.5744 10.023 3.5747 0 0 0-6.0802-3.2861z" opacity=".984" style="paint-order:markers stroke fill"/>
  </g>
 </g>
</svg>
